# xmcd
#
# Track frame offsets:
#	150
#	17282
#	35769
#	52266
#	75539
#	100717
#	120062
#	139375
#	156030
#	173767
#	192818
#	208862
#	226426
#	246168
#
# Disc length: 3619 seconds
# Revision: 1
# Processed by: cddbd v1.5.2PL0 Copyright (c) Steve Scherf et al.
# Submitted via: dBpowerAMP V12.0
#
DISCID=b10e210e
DTITLE=Toronzo Cannon - Leaving Mood
DYEAR=2011
DGENRE=Blues
TTITLE0=She Loved Me
TTITLE1=Chico's Song [For Chico Banks]
TTITLE2=Come On
TTITLE3=I Believe
TTITLE4=Hard Luck
TTITLE5=Open Letter (To Whom It May Concern)
TTITLE6=I Can't Take Her Nowhere
TTITLE7=Leaving Mood
TTITLE8=She's Too Much
TTITLE9=You're a Good Woman
TTITLE10=Earnestine
TTITLE11=Do I Move You?
TTITLE12=Baby Girl
TTITLE13=Not Gonna Worry
EXTD=
EXTT0=
EXTT1=
EXTT2=
EXTT3=
EXTT4=
EXTT5=
EXTT6=
EXTT7=
EXTT8=
EXTT9=
EXTT10=
EXTT11=
EXTT12=
EXTT13=
PLAYORDER=
